<?xml version="1.0" encoding="UTF-8"?>
<!-- Generator: visioncortex VTracer 0.6.12 -->
<svg version="1.1" xmlns="http://www.w3.org/2000/svg" width="512" height="512" viewBox="0 0 512 512">
<path d="M0 0 C1.6027919241009272 0.0001591408051844212 3.2055889630522927 0.0058547565614048835 4.808349609375 0.015869140625 C5.650384368896482 0.01728408813476534 6.492419128417964 0.01869903564453068 7.3599700927734375 0.0201568603515625 C10.06024670709769 0.02577275742162044 12.76044163446727 0.038327906691002056 15.460693359375 0.051025390625 C17.286864040401042 0.05603834476577774 19.113036015700914 0.06060160542791948 20.939208984375 0.064697265625 C25.425568780777695 0.07574734886688717 29.911867202327386 0.0930225993567646 34.398193359375 0.113525390625 C34.398193359375 4.113525390625 34.398193359375 4.113525390625 33.398193359375 6.113525390625 C32.738193359375 6.113525390625 32.07819335937501 6.113525390625 31.398193359375 6.113525390625 C31.355009765625 6.376494140624999 31.355009765625 6.376494140624999 31.136474609375 7.707275390625 C30.129912592622816 10.987921963743247 28.379721108819382 13.717203734417566 26.585693359375 16.613525390625 C25.770303286136084 17.950590659867416 24.955215574815867 19.287840352585178 24.140380859375 20.625244140625 C23.70048828124999 21.3437353515625 23.260595703125006 22.0622265625 22.807373046875 22.802490234375 C20.250601193709883 26.995560636672465 17.73375551916871 31.212618342394038 15.210693359375 35.426025390625 C13.764438912668282 37.83700845367892 12.317821230952802 40.24770789565599 10.865478515625 42.655029296875 C9.818792597662082 44.4087942209826 8.789011361069925 46.17269421156047 7.770751953125 47.943115234375 C7.239174804687508 48.859155273437494 6.7075976562499875 49.7751953125 6.159912109375 50.718994140625 C5.678688964843758 51.55970458984375 5.1974658203124875 52.400415039062494 4.70166015625 53.2666015625 C4.271516113281251 53.87608642578125 3.8413720703125023 54.485571289062506 3.398193359375 55.113525390625 C2.7381933593750034 55.113525390625 2.078193359375007 55.113525390625 1.398193359375 55.113525390625 C1.3195605468750102 55.95270507812501 1.240927734374992 56.791884765625 1.159912109375 57.656494140625 C0.23275796687514116 61.86434755658587 -1.5118653758213725 64.81592080663579 -3.789306640625 68.426025390625 C-4.1956835937500045 69.0868310546875 -4.602060546875009 69.74763671875 -5.020751953125 70.428466796875 C-7.671878323670768 74.71371975449112 -10.4391845308256 78.91228135561764 -13.273681640625 83.078369140625 C-15.108942983912527 85.8906372578391 -16.70046639196414 88.81588435262485 -18.308837890625 91.761962890625 C-19.77018129251792 94.41975360947556 -21.264238757226792 97.0542379881729 -22.789306640625 99.676025390625 C-23.277861328125 100.522939453125 -23.766416015624998 101.369853515625 -24.269775390625 102.242431640625 C-24.709345703124995 102.859892578125 -25.14891601562499 103.477353515625 -25.601806640625 104.113525390625 C-26.261806640624997 104.113525390625 -26.921806640624993 104.113525390625 -27.601806640625 104.113525390625 C-27.71137695312501 104.666533203125 -27.820947265624994 105.219541015625 -27.933837890625 105.789306640625 C-29.99133311669752 112.94842745649134 -34.74620630809761 119.458649383124 -38.914306640625 125.558837890625 C-42.68930306992746 131.2737630405412 -46.103383867906416 137.22646451658304 -49.601806640625 143.113525390625 C-51.14081947832037 145.6984505823486 -52.68245357377208 148.28178716915593 -54.226806640625 150.863525390625 C-54.60224609375001 151.49137939453124 -54.977685546874994 152.1192333984375 -55.364501953125 152.76611328125 C-57.572011439625015 156.44288159701938 -59.837775584641065 160.07280382319414 -62.164306640625 163.676025390625 C-66.23745884176859 170.00566566564154 -69.91518421579792 176.55421016723136 -73.601806640625 183.113525390625 C-74.261806640625 183.113525390625 -74.921806640625 183.113525390625 -75.601806640625 183.113525390625 C-75.70622070312498 183.672978515625 -75.810634765625 184.232431640625 -75.918212890625 184.808837890625 C-76.73101800078342 187.54915226201618 -78.00471703804536 189.5797074814413 -79.539306640625 191.988525390625 C-81.77957691888255 195.62023452276432 -83.50712047324731 198.95371795458982 -84.601806640625 203.113525390625 C-85.261806640625 203.113525390625 -85.921806640625 203.113525390625 -86.601806640625 203.113525390625 C-86.808056640625 203.917900390625 -87.014306640625 204.722275390625 -87.226806640625 205.551025390625 C-88.6809140719033 209.31848555348242 -90.53422264620372 212.16878595182467 -92.808837890625 215.476806640625 C-94.90929758369032 218.56571795395635 -96.92890486546435 221.70004691937783 -98.914306640625 224.863525390625 C-99.591064453125 225.930869140625 -100.267822265625 226.998212890625 -100.965087890625 228.097900390625 C-102.5022363922949 230.93006899036047 -103.40634228548286 232.91008179246225 -103.601806640625 236.113525390625 C-102.49536860745158 237.789946653009 -101.36743088398154 239.45693104823823 -100.125244140625 241.035400390625 C-98.38006299898632 243.41600646075779 -97.04211009266623 245.87871779363684 -95.664306640625 248.488525390625 C-93.87869097421688 251.8427705158777 -92.04487532460769 255.01234094172554 -89.851806640625 258.113525390625 C-86.67496877690837 262.72830039265546 -84.17021712244296 267.64545988155976 -81.601806640625 272.613525390625 C-78.69229324888016 278.2293633818775 -75.79955483736902 283.70533178449966 -72.160400390625 288.890869140625 C-66.59136823312218 296.83267189155004 -61.5373302275886 305.0403270921167 -56.992431640625 313.605712890625 C-55.22803561882316 316.787573132189 -53.21261094559202 319.7492193550499 -51.160400390625 322.750244140625 C-48.76030811522111 326.38948180132513 -46.6242711132048 330.1749356245328 -44.445556640625 333.949462890625 C-40.200278629735095 341.2347916804996 -35.73812027348586 348.3843814042361 -31.1396484375 355.451171875 C-27.501536411368647 361.04315552885424 -24.125969923257088 366.6965612413495 -21.000244140625 372.593994140625 C-19.19324398526544 375.84962291215265 -17.124929640414933 378.882730955365 -15.023681640625 381.953369140625 C-13.660607212804678 384.0241937521213 -12.46301712974983 386.1184062276292 -11.289306640625 388.301025390625 C-9.083646418389009 392.3900902831469 -6.589996792963177 396.2359402398797 -4.039306640625 400.113525390625 C-1.1484980261988085 404.52685770133144 1.319857579440992 408.8584263248345 3.300537109375 413.750244140625 C6.295305905811148 420.1980559621334 10.463083208067388 426.2108601636636 14.398193359375 432.113525390625 C18.485092270455624 430.75122575359813 19.353982920922675 428.0887659189986 21.273193359375 424.488525390625 C25.588537898842162 416.6432486777577 25.588537898842162 416.6432486777577 28.023193359375 413.426025390625 C29.952159077162236 410.8519629409876 31.46126547729554 408.2102652826889 32.960693359375 405.363525390625 C35.80196973134085 400.0324707545654 38.96627138492079 394.954312896081 42.210693359375 389.863525390625 C48.736892378410005 379.6197309143293 55.010799979829244 369.25684515040615 61.085693359375 358.738525390625 C63.53017612740638 354.5238999285019 66.13090198701275 350.475805020038 68.870849609375 346.449462890625 C71.2734027894499 342.77496979168694 73.42218975047172 338.95805810215273 75.609130859375 335.152587890625 C77.31803334833091 332.24969239628507 79.11685634843025 329.43207800206915 80.960693359375 326.613525390625 C83.33347890782244 322.9359708487963 85.37707152375958 319.24474986965976 87.273193359375 315.301025390625 C89.8778806243281 309.9161328509511 92.92639457959626 304.9756459692819 96.239501953125 300.0087890625 C98.57766072793481 296.4871241824152 100.58202470296555 292.9303623764759 102.398193359375 289.113525390625 C103.05819335937497 289.113525390625 103.718193359375 289.113525390625 104.398193359375 289.113525390625 C104.54256835937497 288.515400390625 104.686943359375 287.917275390625 104.835693359375 287.301025390625 C105.28543725663656 285.5520213457188 105.8271167688705 283.82675516213845 106.398193359375 282.113525390625 C107.05819335937497 282.113525390625 107.718193359375 282.113525390625 108.398193359375 282.113525390625 C108.50389648437499 281.542470703125 108.60959960937498 280.971416015625 108.718505859375 280.383056640625 C109.50446596196889 277.7586726198947 110.68374365745956 276.0270457443026 112.273193359375 273.801025390625 C114.88254423553082 270.0124486377449 116.75581552725549 266.40195639671487 118.398193359375 262.113525390625 C119.05819335937503 262.113525390625 119.718193359375 262.113525390625 120.398193359375 262.113525390625 C120.49422851562497 261.72293945312504 120.49422851562497 261.72293945312504 120.980224609375 259.746337890625 C123.34183812226257 253.69592310554117 127.2759152920533 248.59867357096618 130.962646484375 243.281494140625 C131.54336914062497 242.41911132812504 132.124091796875 241.55672851562497 132.722412109375 240.668212890625 C133.25954833984378 239.8894580078125 133.7966845703125 239.110703125 134.35009765625 238.308349609375 C135.398193359375 236.113525390625 135.398193359375 236.113525390625 135.12890625 233.9609375 C133.11312535979027 228.86457465462175 130.22726360233895 224.12566665544713 126.960693359375 219.738525390625 C118.398193359375 208.14915437151666 118.398193359375 208.14915437151666 118.398193359375 203.113525390625 C117.73819335937497 203.113525390625 117.078193359375 203.113525390625 116.398193359375 203.113525390625 C116.011474609375 202.389072265625 115.624755859375 201.664619140625 115.226318359375 200.918212890625 C110.45380523189147 192.05834941138573 110.45380523189147 192.05834941138573 108.023193359375 188.613525390625 C106.398193359375 186.11352539062497 106.398193359375 186.11352539062497 106.398193359375 183.113525390625 C105.73819335937503 183.113525390625 105.078193359375 183.113525390625 104.398193359375 183.113525390625 C103.10131835937506 181.31274414062509 103.10131835937506 181.31274414062509 101.648193359375 178.801025390625 C101.11838867187498 177.889658203125 100.58858398437496 176.978291015625 100.042724609375 176.039306640625 C97.93056356709769 172.28156644902 95.87764852737155 168.49360588400037 93.831787109375 164.699462890625 C92.58533509181291 162.45109440118065 91.28151932652088 160.2791155628342 89.898193359375 158.113525390625 C87.94499219556172 155.0557983290643 86.18282310182224 151.932293276618 84.460693359375 148.738525390625 C80.67532295104417 141.72929731995615 76.64263761574284 134.92158409458193 72.210693359375 128.301025390625 C71.72213867187497 127.566259765625 71.233583984375 126.83149414062501 70.730224609375 126.074462890625 C69.65899132244527 124.49745670282815 68.53635478091064 122.95542980081348 67.398193359375 121.426025390625 C66.398193359375 119.113525390625 66.398193359375 119.113525390625 67.077880859375 116.410400390625 C68.55629303934859 112.71874394122352 70.43325843421019 109.41728344200595 72.523193359375 106.051025390625 C72.7204602050781 105.72904174804688 72.7204602050781 105.72904174804688 73.71875 104.099609375 C74.53596688114965 102.76663348757253 75.355398641247 101.43501304565794 76.177001953125 100.104736328125 C77.36853769102083 98.16188037485061 78.53695625839555 96.20696151003138 79.698974609375 94.246337890625 C80.4110785404082 93.0561525508601 81.12331212269805 91.86604477080955 81.835693359375 90.676025390625 C82.47377929687502 89.604814453125 83.11186523437499 88.533603515625 83.769287109375 87.429931640625 C84.306826171875 86.665517578125 84.844365234375 85.901103515625 85.398193359375 85.113525390625 C86.05819335937497 85.113525390625 86.718193359375 85.113525390625 87.398193359375 85.113525390625 C87.871279296875 85.961728515625 88.344365234375 86.809931640625 88.831787109375 87.683837890625 C92.75988205047929 94.6703574057859 96.8615865899834 101.48679450947223 101.24267578125 108.198486328125 C103.76334817262705 112.07644385332043 106.08687722993568 116.00641582484286 108.269287109375 120.082275390625 C109.86083688785936 122.94596357336499 111.65963886377574 125.66448697566733 113.480224609375 128.386962890625 C114.398193359375 130.113525390625 114.398193359375 130.113525390625 114.398193359375 133.113525390625 C115.05819335937503 133.113525390625 115.718193359375 133.113525390625 116.398193359375 133.113525390625 C116.90608398437502 134.019736328125 117.41397460937497 134.925947265625 117.937255859375 135.859619140625 C124.17024100645403 146.91426133723985 124.17024100645403 146.91426133723985 127.273193359375 151.426025390625 C130.1629546630108 155.63502555026847 132.71144373119216 160.0134814519643 135.273193359375 164.426025390625 C138.83949090511464 170.5664976167196 142.59522452513454 176.47503097731217 146.593505859375 182.343994140625 C148.944919421642 185.95254871994814 150.94502734838227 189.70472153371531 152.952880859375 193.511962890625 C154.38870103068592 196.09643919898463 155.96602897550446 198.49623239170091 157.648193359375 200.926025390625 C159.90400748454852 204.20935694454246 161.3986319149824 207.2152357574939 162.398193359375 211.113525390625 C163.05819335937503 211.113525390625 163.718193359375 211.113525390625 164.398193359375 211.113525390625 C173.398193359375 227.48245742945994 173.398193359375 227.48245742945994 173.398193359375 231.113525390625 C174.05819335937503 231.113525390625 174.718193359375 231.113525390625 175.398193359375 231.113525390625 C176.79503727843962 241.72953917551615 167.07160595199144 252.60040303355936 161.638427734375 261.150146484375 C159.84123939391367 263.99522298712895 158.0891898676017 266.8662981101496 156.335693359375 269.738525390625 C153.54985235132892 274.2859183896174 150.68254240891002 278.7700760991856 147.773193359375 283.238525390625 C144.56564289889673 288.17155409206885 141.67773921789387 293.2031368158054 138.925537109375 298.402587890625 C137.22639911600572 301.41844918831885 135.3443915739761 304.25125278011524 133.398193359375 307.113525390625 C130.2860599910682 311.6933125633038 127.56806834856337 316.3401872567869 124.980224609375 321.230712890625 C122.50188100240598 325.74680568554635 119.762249628267 330.09224668179036 117.034912109375 334.461181640625 C115.39819335937494 337.1135253906251 115.39819335937494 337.1135253906251 114.398193359375 339.113525390625 C113.73819335937497 339.113525390625 113.078193359375 339.113525390625 112.398193359375 339.113525390625 C112.31569335937502 339.638173828125 112.23319335937498 340.162822265625 112.148193359375 340.703369140625 C111.11291267324043 344.03028676221356 109.26872423108512 346.7688541581945 107.398193359375 349.676025390625 C103.52273659932632 355.73989567077115 103.52273659932632 355.73989567077115 102.398193359375 359.113525390625 C101.73819335937503 359.113525390625 101.078193359375 359.113525390625 100.398193359375 359.113525390625 C100.15584960937497 359.966884765625 99.913505859375 360.820244140625 99.663818359375 361.699462890625 C98.28191564024291 365.4271881268022 96.36942285217106 368.47974186499204 94.148193359375 371.738525390625 C91.31634645295725 376.0093234621047 88.73170880077805 380.22693449317643 86.523193359375 384.863525390625 C81.27290036967725 395.7894144334317 74.54235460216785 406.06035906927025 67.714599609375 416.058837890625 C66.18160783600416 418.45157875944716 64.85614874095768 420.9165147255654 63.523193359375 423.426025390625 C61.356807894649535 427.4922515115888 58.99016250412285 431.30441484140425 56.398193359375 435.113525390625 C53.88810720181675 438.8028784410738 51.595359362690374 442.47486140125255 49.523193359375 446.426025390625 C49.29192749023434 446.8425537109375 49.29192749023434 446.8425537109375 48.12158203125 448.950439453125 C47.22322711858624 450.59926878425847 46.331675126196046 452.25386715922826 45.5274658203125 453.9506072998047 C39.94487907516188 465.6420248281951 39.94487907516188 465.6420248281951 34.302978515625 467.9828186035156 C29.322059285926002 469.113453864579 24.3401917146179 469.10944222018037 19.255859375 468.947021484375 C16.569260240212316 468.86301152697376 13.89994915434923 468.88727215110987 11.212646484375 468.929931640625 C9.497139361889424 468.92965153006344 7.781620344546411 468.9233545074693 6.066162109375 468.910400390625 C5.6682118988036905 468.91071258544923 5.6682118988036905 468.91071258544923 3.6543426513671875 468.91229248046875 C-0.5029893968506087 468.75660832916685 -2.1544388116342645 468.4733409809147 -5.5009765625 465.78173828125 C-7.095197747844907 463.75695695241393 -8.595823611093522 461.8496218227169 -9.883056640625 459.625244140625 C-10.247941894531237 459.00480224609373 -10.612827148437503 458.3843603515625 -10.98876953125 457.7451171875 C-11.172420654296872 457.4243420410156 -11.172420654296872 457.4243420410156 -12.101806640625 455.801025390625 C-12.881093329285761 454.4673054847352 -13.66103615394411 453.1339687292488 -14.441650390625 451.801025390625 C-14.811450195312489 451.165517578125 -15.181250000000006 450.530009765625 -15.562255859375 449.875244140625 C-16.87609257140778 447.64869512370893 -18.26277262913385 445.4732034597167 -19.664306640625 443.301025390625 C-21.601806640625 440.113525390625 -21.601806640625 440.113525390625 -21.601806640625 438.113525390625 C-22.261806640624997 438.113525390625 -22.921806640624993 438.113525390625 -23.601806640625 438.113525390625 C-23.988525390625 437.389072265625 -24.375244140625 436.664619140625 -24.773681640625 435.918212890625 C-29.54619476810859 427.0583494113857 -29.54619476810859 427.0583494113857 -31.976806640625 423.613525390625 C-33.601806640625 421.113525390625 -33.601806640625 421.113525390625 -33.601806640625 418.113525390625 C-34.261806640625 418.113525390625 -34.92180664062499 418.113525390625 -35.601806640625 418.113525390625 C-35.85833007812499 417.626259765625 -36.114853515624986 417.138994140625 -36.379150390625 416.636962890625 C-39.074542887793314 411.64549530327633 -42.00825867966529 406.86364721842136 -45.101806640625 402.113525390625 C-48.01670626275711 397.634316093479 -50.775323533997636 393.12584101345465 -53.312744140625 388.422119140625 C-55.52814312433645 384.45454096070534 -57.971192922144496 380.625975497275 -60.367431640625 376.765869140625 C-63.26397947473248 372.0660782921467 -66.02152000531353 367.2850985549155 -68.79736328125 362.513427734375 C-71.99430178327745 357.0550589585116 -75.36361218356146 351.7289543401026 -78.91015625 346.49072265625 C-81.601806640625 342.4339816789685 -81.601806640625 342.4339816789685 -81.601806640625 339.113525390625 C-82.261806640625 339.113525390625 -82.921806640625 339.113525390625 -83.601806640625 339.113525390625 C-83.82892333984375 338.5668017578125 -84.05604003906251 338.020078125 -84.2900390625 337.456787109375 C-86.73762584396376 331.73944883640183 -89.61537798632256 326.5035169618828 -92.914306640625 321.238525390625 C-93.40068603515624 320.451875 -93.88706542968751 319.665224609375 -94.38818359375 318.854736328125 C-96.98414244971573 314.66639985634623 -99.62155073764475 310.50653801414734 -102.289306640625 306.363525390625 C-104.8254493200745 302.4177452123841 -107.17744786856127 298.3877785211919 -109.476806640625 294.301025390625 C-112.58715999123734 288.7742076233665 -115.91161342253397 283.4263146971112 -119.36669921875 278.109375 C-121.67707387414688 274.5534334692412 -123.954263183225 270.9827965585083 -126.164306640625 267.363525390625 C-126.639970703125 266.584931640625 -127.115634765625 265.806337890625 -127.605712890625 265.004150390625 C-128.601806640625 263.113525390625 -128.601806640625 263.113525390625 -128.601806640625 261.113525390625 C-129.261806640625 261.113525390625 -129.921806640625 261.113525390625 -130.601806640625 261.113525390625 C-130.94211914062498 260.470283203125 -131.282431640625 259.827041015625 -131.633056640625 259.164306640625 C-133.9029930280618 254.93232417362185 -136.169288639108 250.7314951291143 -138.781494140625 246.699462890625 C-139.145654296875 246.1331616210938 -139.509814453125 245.56686035156247 -139.885009765625 244.9833984375 C-140.93366257769736 243.36750699564163 -141.99788836146132 241.7617542571545 -143.062744140625 240.156494140625 C-144.744744562139 236.83091462702242 -144.92021089180685 234.78615373615352 -144.601806640625 231.113525390625 C-143.941806640625 231.113525390625 -143.281806640625 231.113525390625 -142.601806640625 231.113525390625 C-142.521884765625 230.599189453125 -142.441962890625 230.084853515625 -142.359619140625 229.554931640625 C-141.27834029922766 226.0714302185975 -139.37679692189232 223.13598094559015 -137.476806640625 220.051025390625 C-137.0730078125 219.3863525390625 -136.66920898437502 218.7216796875 -136.253173828125 218.036865234375 C-133.2916087924778 213.18078681167805 -130.23580734163568 208.38787210141115 -127.156494140625 203.605712890625 C-125.23875862366347 200.53155394635 -123.52109742977544 197.3692017493864 -121.797119140625 194.183837890625 C-120.59331517323982 192.09881794711472 -119.2735471141096 190.1802166658411 -117.851806640625 188.238525390625 C-115.601806640625 185.113525390625 -115.601806640625 185.113525390625 -114.601806640625 182.113525390625 C-113.941806640625 182.113525390625 -113.281806640625 182.113525390625 -112.601806640625 182.113525390625 C-112.49094726562501 181.372314453125 -112.38008789062499 180.631103515625 -112.265869140625 179.867431640625 C-111.57365467645968 176.99677753923353 -110.68929653717777 175.42744853584128 -108.976806640625 173.051025390625 C-106.50148048783112 169.49200381687112 -104.25808403530007 165.87503151244707 -102.101806640625 162.113525390625 C-100.06115043798681 158.56805268844838 -97.97794194880802 155.11179312992707 -95.664306640625 151.738525390625 C-90.38364271856355 143.96538809735054 -85.94475407143274 135.62104079939533 -81.476806640625 127.363525390625 C-77.81187505386077 120.60816500637307 -73.93329173094173 114.02661420793834 -69.601806640625 107.676025390625 C-66.22962476340331 102.68378746794953 -63.435363369536674 97.42359550727181 -60.601806640625 92.113525390625 C-59.64723969732023 90.38227668242659 -58.689210282400666 88.65292995347316 -57.726806640625 86.926025390625 C-57.31688476562499 86.189970703125 -56.90696289062498 85.453916015625 -56.484619140625 84.695556640625 C-56.19329101562499 84.173486328125 -55.901962890624986 83.651416015625 -55.601806640625 83.113525390625 C-54.941806640625 83.113525390625 -54.28180664062501 83.113525390625 -53.601806640625 83.113525390625 C-53.50899414062499 82.721650390625 -53.50899414062499 82.721650390625 -53.039306640625 80.738525390625 C-51.38774517973408 76.57371822837833 -49.10245331894828 73.46091275676523 -46.484619140625 69.851806640625 C-43.06219959185995 64.87438733837544 -40.30045989236473 59.510831894104456 -37.601806640625 54.113525390625 C-36.941806640625 54.113525390625 -36.28180664062501 54.113525390625 -35.601806640625 54.113525390625 C-35.51930664062502 53.58887695312501 -35.43680664062498 53.06422851562499 -35.351806640625 52.523681640625 C-34.31652595449049 49.196764019036465 -32.472337512335116 46.45819662305556 -30.601806640625 43.551025390625 C-26.726349880576265 37.48715511047884 -26.726349880576265 37.48715511047884 -25.601806640625 34.113525390625 C-24.941806640625003 34.113525390625 -24.281806640625007 34.113525390625 -23.601806640625 34.113525390625 C-23.368486328125016 33.282080078125 -23.135166015625003 32.450634765625 -22.894775390625 31.593994140625 C-21.366973835145103 27.4813923704359 -19.286077375512264 24.096149473583566 -16.914306640625 20.426025390625 C-16.470949707031252 19.729206542968754 -16.027592773437505 19.0323876953125 -15.57080078125 18.314453125 C-14.675923911595618 16.909187749951258 -13.778416244071877 15.505593913690838 -12.878173828125 14.103759765625 C-11.717809037334689 12.294407475165443 -10.567291525110988 10.47939263464486 -9.422119140625 8.660400390625 C-4.0386677208734625 0.1272948207284017 -4.0386677208734625 0.1272948207284017 0 0 Z " fill="#000000" transform="translate(211.601806640625,19.886474609375)"/>
<path d="M0 0 C1.7267142768459962 -0.03664201188424343 3.453145669143339 -0.0911973125651322 5.1787109375 -0.1640625 C19.4949421111113 -0.7588590086489866 19.4949421111113 -0.7588590086489866 23.99462890625 2.4638671875 C25.8137594150337 4.7695866241289835 27.103192329306808 6.9178322241753065 28.35009765625 9.56982421875 C29.179660764694177 11.030305510880765 30.012432795192353 12.488974591863755 30.85009765625 13.94482421875 C31.239394531250014 14.679589843750001 31.628691406250027 15.414355468750003 32.02978515625 16.17138671875 C34.077139492741026 19.890545187997 36.398357773102646 23.42731272537263 38.70166015625 26.99169921875 C40.300179914407295 29.491753816815915 41.83490613933657 32.01853773140223 43.35009765625 34.56982421875 C43.95208984375 35.57400390625 44.554082031250005 36.57818359375 45.17431640625 37.61279296875 C45.789199218750014 38.65048828125 46.40408203125003 39.68818359375 47.03759765625 40.75732421875 C47.34890625000003 41.280039062499995 47.34890625000003 41.280039062499995 48.92431640625 43.92529296875 C50.35009765625 46.569824218749986 50.35009765625 46.569824218749986 50.35009765625 48.56982421875 C51.01009765624997 48.56982421875 51.67009765624999 48.56982421875 52.35009765625 48.56982421875 C52.71361328124999 49.24787109375001 53.07712890624998 49.92591796875 53.45166015625 50.62451171875 C57.773107453715284 58.624729536108745 62.223931524862564 66.49161710424188 67.35009765625 74.00732421875 C70.17929298395529 78.18799867937489 72.59033602914695 82.53490148338226 74.95556640625 86.99169921875 C75.91581338966807 88.76694574271615 76.94441918298605 90.50633086694013 78.02587890625 92.21044921875 C79.35009765625 94.56982421875001 79.35009765625 94.56982421875001 79.35009765625 97.56982421875 C80.01009765624997 97.56982421875 80.67009765625 97.56982421875 81.35009765625 97.56982421875 C81.50285156249998 97.86244140625 81.50285156249998 97.86244140625 82.27587890625 99.34326171875 C88.36336299513471 110.76372482634778 95.22999156361288 121.74934734377189 102.22509765625 132.63232421875 C104.66091959464922 136.4245872839829 106.87930898543078 140.28254441419543 109.02978515625 144.24169921875 C111.11279814338013 147.91470436765405 113.41046008546351 151.44604119065505 115.70166015625 154.99169921875 C116.75432382768304 156.6380452451618 117.78542074735952 158.29851721908545 118.78759765625 159.97607421875 C120.32607081335425 162.52993965954306 121.93319238487754 165.03202319928798 123.56005859375 167.5302734375 C126.97342394291695 172.7733513942045 130.26600009283942 178.019471278025 133.22119140625 183.53857421875 C134.8127411847343 186.40226240148996 136.61154316065074 189.12078580379236 138.43212890625 191.84326171875 C139.35009765625 193.56982421874997 139.35009765625 193.56982421874997 139.35009765625 196.56982421875 C140.01009765625003 196.56982421875 140.67009765625 196.56982421875 141.35009765625 196.56982421875 C141.85798828125002 197.47603515625 142.36587890624997 198.38224609375 142.88916015625 199.31591796875 C146.38852900809644 205.52155646205858 149.93981429360576 211.59859627750734 153.97509765625 217.47607421875 C155.89275571335253 220.39614444206526 157.53906165503594 223.44178722676878 159.17431640625 226.52685546875 C160.35009765625 228.56982421875 160.35009765625 228.56982421875 162.05712890625 230.51904296875 C163.35009765625 232.56982421875006 163.35009765625 232.56982421875006 163.15869140625 235.08154296875 C160.66766611018073 242.74716187501144 155.51496660867446 249.5399417114063 151.237548828125 256.317138671875 C147.06704684563562 262.9523472682912 143.17542592334172 269.73124854573683 139.35009765625 276.56982421875 C138.69009765624997 276.56982421875 138.03009765625 276.56982421875 137.35009765625 276.56982421875 C137.26888671875003 277.08673828125 137.18767578125 277.60365234375 137.10400390625 278.13623046875 C136.03851795329325 281.5755970422839 134.1661612609186 284.4643616855677 132.28759765625 287.50732421875 C132.08553710937497 287.8392578125 132.08553710937497 287.8392578125 131.06298828125 289.51904296875 C129.83103900475533 291.53951689952686 128.59176830901112 293.5553128278478 127.35009765625 295.56982421875 C127.0104296875 296.1221875 127.0104296875 296.1221875 125.29150390625 298.91748046875 C123.98949389747827 301.0316093964739 122.68609168381585 303.1448815074529 121.38134765625 305.25732421875 C118.79362016877269 309.4773105829438 116.25257530012874 313.72433757767845 113.712158203125 317.972900390625 C110.57412944603607 323.21378078083546 107.3774504543037 328.4162121561465 104.16650390625 333.61279296875 C102.62164776527771 336.1277523208275 101.10437978113174 338.6555258213549 99.60009765625 341.19482421875 C97.63385944787893 344.5006972504068 95.59939835629581 347.75503205896547 93.52197265625 350.99169921875 C88.64181736627938 358.6037965316039 83.9176835002811 366.08003198555843 80.04541015625 374.26513671875 C76.33389960845932 381.5000167266553 71.93260409342281 388.3668663043022 67.70849609375 395.310546875 C65.86991617530907 398.3684581915442 64.10312372075498 401.4621871044003 62.35009765625 404.56982421875 C61.69009765625003 404.56982421875 61.03009765625001 404.56982421875 60.35009765625 404.56982421875 C60.309492187499984 404.82828125000003 60.309492187499984 404.82828125000003 60.10400390625 406.13623046875 C59.03852662933309 409.5755690362072 57.16626013565087 412.46444206609925 55.28759765625 415.50732421875 C54.88275146484375 416.17191650390623 54.4779052734375 416.8365087890625 54.060791015625 417.521240234375 C52.828895782565496 419.54054730618634 51.58997053555777 421.5554084928235 50.35009765625 423.56982421875 C49.68236328124999 424.66294921875 49.01462890624998 425.75607421875 48.32666015625 426.88232421875 C41.24707501515377 438.44083057156024 34.07979849002129 449.94980658185403 26.72509765625 461.33544921875 C25.350097656249943 463.56982421875006 25.350097656249943 463.56982421875006 24.47509765625 465.80419921875 C23.35009765625 467.56982421875 23.35009765625 467.56982421875 21.288818359375 468.174072265625 C17.585503690284042 468.67279064051877 13.93367996375082 468.69349085840685 10.20556640625 468.66748046875 C9.435779571533203 468.6660655212402 8.665992736816406 468.66465057373046 7.8728790283203125 468.66319274902344 C5.42774477633634 468.657620279914 2.982703973182538 468.6450729285186 0.53759765625 468.63232421875 C-1.1258124743755502 468.62730565777196 -2.789224048334745 468.6227433734362 -4.45263671875 468.61865234375 C-8.518427626870903 468.6076598749313 -12.58414917036771 468.590414320524 -16.64990234375 468.56982421875 C-15.086547659810435 463.7652286882543 -13.239293616004034 459.8854763391734 -10.64990234375 455.56982421875 C-9.989902343750032 455.56982421875 -9.329902343750007 455.56982421875 -8.64990234375 455.56982421875 C-8.64990234375 454.57982421875 -8.64990234375 453.58982421875 -8.64990234375 452.56982421875 C-7.989902343750032 452.56982421875 -7.329902343750007 452.56982421875 -6.64990234375 452.56982421875 C-6.557089843749964 451.69712890625 -6.464277343750041 450.82443359375 -6.36865234375 449.92529296875 C-5.573215423890076 446.2118130004909 -4.276611808513735 444.0070182479212 -2.14990234375 440.88232421875 C-0.23626883958070266 438.04716638367944 1.2666925704764935 435.82003947607063 2.35009765625 432.56982421875 C3.010097656249968 432.56982421875 3.670097656249993 432.56982421875 4.35009765625 432.56982421875 C4.468046875000027 432.15216796875 4.468046875000027 432.15216796875 5.06494140625 430.03857421875 C6.5631835869562565 425.9946865091235 8.582991933632456 422.6777105643731 10.91259765625 419.06982421875 C11.133510742187468 418.72165649414063 11.133510742187468 418.72165649414063 12.25146484375 416.959716796875 C14.413409287059551 413.5597852517488 16.602360568714346 410.17767595421554 18.79931640625 406.80029296875 C19.566554685843926 405.61950553257964 20.33348904858525 404.4385205571063 21.10009765625 403.25732421875 C21.47392578124999 402.6819189453125 21.847753906249977 402.106513671875 22.23291015625 401.513671875 C24.999662625146414 397.21462099695054 27.432792612308504 392.7958686507946 29.82275390625 388.28076171875 C31.52189189961905 385.26490042105655 33.40389944164906 382.4320968292595 35.35009765625 379.56982421875 C38.51129486261959 374.91817661850274 41.282061650257106 370.1890216786718 43.92041015625 365.22607421875 C47.488083755431774 358.5976096082484 51.5077092582066 352.28704717122906 55.71337890625 346.05029296875 C60.47824165111564 338.8290809329751 64.94238216767286 331.4306303762241 69.06103515625 323.82373046875 C71.13898696965367 320.19046320713204 73.47470872744282 316.7247854758339 75.79931640625 313.24560546875 C77.43584628897173 310.42187002878933 78.42237676350732 307.69117086773156 79.35009765625 304.56982421875 C80.01009765624997 304.56982421875 80.67009765625 304.56982421875 81.35009765625 304.56982421875 C81.35009765625 303.57982421875 81.35009765625 302.58982421875 81.35009765625 301.56982421875 C82.01009765624997 301.56982421875 82.67009765625 301.56982421875 83.35009765625 301.56982421875 C83.47521728515625 300.982978515625 83.6003369140625 300.3961328125 83.729248046875 299.79150390625 C84.34394426653063 297.5918438201839 85.12172216814531 295.97944333750115 86.28369140625 294.02294921875 C86.68048095703125 293.350703125 87.0772705078125 292.67845703125 87.486083984375 291.98583984375 C87.91558349609375 291.2710546875 88.34508300781249 290.55626953125 88.78759765625 289.81982421875 C89.23063232421873 289.0741015625 89.67366699218746 288.32837890625 90.130126953125 287.56005859375 C93.64378296278949 281.6744213618265 97.27009398496938 275.86199564290683 100.927490234375 270.06494140625 C103.91109030644662 265.32138282610964 106.70297800708721 260.5111142305205 109.35009765625 255.56982421875 C110.01009765625003 255.56982421875 110.67009765625 255.56982421875 111.35009765625 255.56982421875 C111.53572265625002 254.78607421875 111.72134765624997 254.00232421875 111.91259765625 253.19482421875 C113.27011182559863 249.77152761778382 114.73307616896665 247.55770654287005 116.91259765625 244.63232421875 C121.81887940362554 237.7264234398811 121.81887940362554 237.7264234398811 121.35009765625 232.56982421875 C120.00870058520331 230.14334798832158 118.50004202841285 227.95643677871078 116.85400390625 225.72607421875 C115.05480303783645 223.14644076585577 114.12867058111249 220.60625862571362 113.35009765625 217.56982421875 C112.69009765624997 217.56982421875 112.03009765625 217.56982421875 111.35009765625 217.56982421875 C111.05619140624998 216.99619140625 110.76228515625002 216.42255859375 110.45947265625 215.83154296875 C106.58610726561494 208.49663551924283 102.21434918303436 201.55051290635 97.7490234375 194.565185546875 C94.48589152836684 189.4370427574672 91.45348590538134 184.2563255711443 88.62353515625 178.87451171875 C87.39940388149341 176.65905941167517 86.05658408412012 174.63787400859874 84.60009765625 172.56982421875 C81.5047593016742 168.07191067225708 79.08607108625415 163.29411890530636 76.60009765625 158.44482421875 C72.74212705602184 150.9458527718002 68.4585790328191 143.97605475417058 63.68994140625 137.03076171875 C54.35009765625 123.38760319532213 54.35009765625 123.38760319532213 54.35009765625 119.56982421875 C53.69009765625003 119.56982421875 53.03009765625001 119.56982421875 52.35009765625 119.56982421875 C51.87958984375001 118.59400390625001 51.40908203125002 117.61818359375002 50.92431640625 116.61279296875 C50.295732270290046 115.3274791385036 49.66680813962347 114.04233154394939 49.03759765625 112.75732421875 C48.728867187499986 112.11472656249998 48.42013671874997 111.47212890625002 48.10205078125 110.81005859375 C46.49807908933832 107.55146347228732 44.980211181845505 105.04984974424357 42.35009765625 102.56982421875 C41.406489624719825 100.97209262553956 40.51582084200277 99.34259621645022 39.66259765625 97.69482421875 C35.57126642381377 90.01209998427498 31.10544367625198 82.50123256436261 26.10791015625 75.37060546875 C24.35009765625 72.56982421874999 24.35009765625 72.56982421874999 24.35009765625 69.56982421875 C23.690097656250032 69.56982421875 23.030097656250007 69.56982421875 22.35009765625 69.56982421875 C22.093574218750007 69.08255859375 21.837050781250014 68.59529296875 21.57275390625 68.09326171875 C18.496766820638697 62.39698933798833 15.092426810070435 56.982920981689006 11.473388671875 51.6201171875 C9.11227195485867 48.04568409342369 7.519270188914106 44.690063250972656 6.35009765625 40.56982421875 C5.690097656250032 40.56982421875 5.030097656250007 40.56982421875 4.35009765625 40.56982421875 C4.205722656250032 40.25013671875 4.205722656250032 40.25013671875 3.47509765625 38.63232421875 C2.35009765625 36.569824218749986 2.35009765625 36.569824218749986 0.35009765625 35.56982421875 C0.020097656250015916 36.559824218749995 0.020097656250015916 36.559824218749995 -1.64990234375 41.56982421875 C-2.309902343749968 41.56982421875 -2.969902343749993 41.56982421875 -3.64990234375 41.56982421875 C-3.763339843750032 42.29427734375 -3.876777343750007 43.01873046875 -3.99365234375 43.76513671875 C-7.055108350836349 56.849216558559675 -18.32627389967024 70.86579530295535 -25.92333984375 81.88623046875 C-27.728963537752975 84.69270892526595 -29.20990851499556 87.56173895070773 -30.64990234375 90.56982421875 C-31.309902343749968 90.56982421875 -31.969902343749993 90.56982421875 -32.64990234375 90.56982421875 C-32.75560546874999 91.12412109375 -32.86130859374998 91.67841796875 -32.97021484375 92.24951171875 C-33.7878568514617 95.0407723657658 -35.035417900735126 97.1933455608638 -36.52490234375 99.69482421875 C-36.839433593750016 100.223984375 -36.839433593750016 100.223984375 -38.43115234375 102.90185546875 C-41.88661879416384 108.63090492705976 -45.3827214770879 114.33522118258128 -48.88037109375 120.03857421875 C-51.39138297934602 124.13818546053943 -53.87089090359626 128.25582684216732 -56.33740234375 132.38232421875 C-62.12326896832846 142.0522927307831 -68.02023284325105 151.6480589163098 -74.10693359375 161.13232421875 C-77.43422403697423 166.38860076703332 -80.55272862236552 171.77421667084184 -83.71240234375 177.13232421875 C-84.1590625 177.8870703125 -84.60572265625001 178.64181640625 -85.06591796875 179.41943359375 C-85.49710937499998 180.1509765625 -85.92830078125002 180.88251953125 -86.37255859375 181.63623046875 C-86.76193603515625 182.29566650390626 -87.1513134765625 182.9551025390625 -87.552490234375 183.634521484375 C-88.65678532229586 185.58196245477515 -89.66670087757927 187.55892113465185 -90.64990234375 189.56982421875 C-91.30990234375 189.56982421875 -91.96990234375 189.56982421875 -92.64990234375 189.56982421875 C-92.69115234374999 190.37419921875 -92.73240234374998 191.17857421875 -92.77490234375 192.00732421875 C-93.76524929196728 196.039451079349 -95.35077236788877 198.33581384438946 -97.71240234375 201.69091796875 C-100.65306035268088 206.06040376024606 -103.24360568675957 210.6260219632048 -105.883544921875 215.181396484375 C-108.89420912277791 220.35274241670243 -112.06710910388531 225.34863953065087 -115.47021484375 230.27294921875 C-116.87665715198398 233.01132033544397 -116.90417001873797 234.5188968531328 -116.64990234375 237.56982421875 C-115.691162109375 239.659423828125 -115.691162109375 239.659423828125 -114.34130859375 241.72216796875 C-113.84574462890626 242.49181884765625 -113.35018066406249 243.2614697265625 -112.839599609375 244.054443359375 C-112.30262451171876 244.86389404296875 -111.7656494140625 245.6733447265625 -111.21240234375 246.50732421875 C-110.66833740234375 247.34835693359378 -110.1242724609375 248.1893896484375 -109.563720703125 249.055908203125 C-107.93662185911177 251.56782411477036 -106.2954722007074 254.06998013358202 -104.64990234375 256.56982421875 C-90.64990234375 277.91882706775283 -90.64990234375 277.91882706775283 -90.64990234375 283.56982421875 C-89.98990234375 283.56982421875 -89.32990234375 283.56982421875 -88.64990234375 283.56982421875 C-88.35599609374998 284.14345703125 -88.06208984375002 284.71708984375 -87.75927734375 285.30810546875 C-83.93992114284595 292.54073689517463 -79.64924049474632 299.40810223091364 -75.25537109375 306.302001953125 C-71.68573697636708 311.90882361057993 -68.21221974630407 317.5615628864374 -64.811767578125 323.272216796875 C-62.371610070823635 327.3700081582791 -59.89952091208659 331.44544404520303 -57.39990234375 335.50732421875 C-57.07828125 336.0326171875 -57.07828125 336.0326171875 -55.45068359375 338.69091796875 C-54.33487099019089 340.4747658837675 -53.191288418623685 342.2419496149565 -52.00537109375 343.97998046875 C-51.771406249999984 344.3248046875 -51.771406249999984 344.3248046875 -50.58740234375 346.06982421875 C-50.18392578125 346.63701171875 -49.78044921874999 347.20419921875 -49.36474609375 347.78857421875 C-48.32382688855455 350.38234010710585 -48.83874163639729 351.9275284492545 -49.64990234375 354.56982421875 C-50.849121093750114 356.85888671875017 -50.849121093750114 356.85888671875017 -52.33740234375 359.19482421875 C-54.58445196517448 362.80730590678166 -56.70212879476216 366.4450911740058 -58.71240234375 370.19482421875 C-61.184188095480295 374.77969330441334 -63.83777002734806 379.18620619612346 -66.64990234375 383.56982421875 C-69.36083431181066 383.2218679562186 -70.39915630323372 382.881410635262 -72.14208984375 380.715576171875 C-72.59841796875 379.9211108398438 -73.05474609375 379.1266455078125 -73.52490234375 378.30810546875 C-74.03537109375 377.4360546875 -74.54583984375 376.56400390625 -75.07177734375 375.66552734375 C-75.33216796875001 375.206298828125 -75.33216796875001 375.206298828125 -76.64990234375 372.88232421875 C-77.69033357232544 371.08603515456343 -78.73197276391309 369.29044513708044 -79.77490234375 367.49560546875 C-80.01982421874999 367.06932861328124 -80.01982421874999 367.06932861328124 -81.25927734375 364.912109375 C-82.44549788686817 362.91411079868755 -83.69046932135547 361.0128329456189 -85.02490234375 359.11279296875 C-86.64990234375 356.56982421875 -86.64990234375 356.56982421875 -86.64990234375 353.56982421875 C-87.30990234375 353.56982421875 -87.96990234375 353.56982421875 -88.64990234375 353.56982421875 C-88.94123046875 352.97556640625 -89.23255859375001 352.38130859375 -89.53271484375 351.76904296875 C-93.90499840068472 342.9282306193506 -98.38620070279518 334.2749000535824 -103.96240234375 326.12841796875 C-106.06530892665421 322.9399832192077 -108.01435099443168 319.6664561532524 -109.96240234375 316.38232421875 C-113.00782337173979 311.25040531268274 -116.14409695122737 306.1958832143893 -119.39990234375 301.19482421875 C-122.21931141563047 296.85828181479496 -124.8827245373297 292.4893894574012 -127.32568359375 287.92919921875 C-129.70898811117314 283.682839547589 -132.36647602284663 279.5965682612239 -134.97802734375 275.48779296875 C-136.36844948210575 273.0610515263394 -137.20139613613452 271.29383986206165 -137.64990234375 268.56982421875 C-138.30990234375 268.56982421875 -138.96990234375 268.56982421875 -139.64990234375 268.56982421875 C-139.95283203125 268.01294921875 -140.25576171875 267.45607421875 -140.56787109375 266.88232421875 C-143.12321338724078 262.22766994876065 -145.77959244195048 257.71127225651793 -148.73193359375 253.29638671875 C-149.64990234375 251.56982421875 -149.64990234375 251.56982421875 -149.64990234375 248.56982421875 C-150.30990234375 248.56982421875 -150.96990234375 248.56982421875 -151.64990234375 248.56982421875 C-151.64990234375 247.57982421875 -151.64990234375 246.58982421874998 -151.64990234375 245.56982421875 C-152.30990234375 245.56982421875 -152.96990234375 245.56982421875 -153.64990234375 245.56982421875 C-154.5218218166256 244.18501093830054 -155.37180618398247 242.78637175536437 -156.21240234375 241.38232421875 C-156.68806640625 240.60501953125004 -157.16373046875 239.82771484374996 -157.65380859375 239.02685546875 C-158.91717812039022 235.91054396970412 -158.7332788484188 234.74523811174475 -157.64990234375 231.56982421875 C-156.41143595288068 229.06021517097216 -155.0202151084464 226.66019329391443 -153.58740234375 224.25732421875 C-153.398876953125 223.93473632812498 -153.398876953125 223.93473632812498 -152.44482421875 222.30224609375 C-151.51952741776765 220.7210426996662 -150.58557553799895 219.14490961863604 -149.64990234375 217.56982421875 C-148.98990234375 217.56982421875 -148.32990234375 217.56982421875 -147.64990234375 217.56982421875 C-147.56740234375 217.04517578125 -147.48490234375 216.52052734375 -147.39990234375 215.97998046875 C-146.36462165761546 212.65306284716138 -144.52043321546014 209.91449545118064 -142.64990234375 207.00732421875 C-138.77444558370127 200.9434539386038 -138.77444558370127 200.9434539386038 -137.64990234375 197.56982421875 C-136.98990234375 197.56982421875 -136.32990234375 197.56982421875 -135.64990234375 197.56982421875 C-135.42044921875 196.74353515625 -135.19099609375002 195.91724609375 -134.95458984375 195.06591796875 C-133.38402012165244 190.85735539007538 -131.21104872503443 187.38597833685154 -128.77490234375 183.63232421875 C-127.90118227171493 182.2698912874312 -127.02877377864456 180.906616308232 -126.15771484375 179.54248046875 C-125.73780273437501 178.8852197265625 -125.31789062499999 178.227958984375 -124.88525390625 177.55078125 C-123.04904427799372 174.60631387378035 -121.3467204644893 171.59647421551057 -119.64990234375 168.56982421875 C-118.98990234375 168.56982421875 -118.32990234375 168.56982421875 -117.64990234375 168.56982421875 C-117.56224609374999 168.03744140625 -117.47458984375001 167.50505859375 -117.38427734375 166.95654296875 C-116.39174091927345 163.73079958920115 -114.70897102494891 161.22854693710244 -112.89990234375 158.38232421875 C-110.50528917010138 154.58030401323236 -108.15976710705618 150.77560304487616 -106.02490234375 146.81982421875 C-103.92095296332104 142.95195768099168 -101.53120726529298 139.3387514874904 -99.06396484375 135.69482421875 C-95.65228772534655 130.5678840187183 -92.97459565300943 125.26532282643564 -90.64990234375 119.56982421875 C-89.98990234375 119.56982421875 -89.32990234375 119.56982421875 -88.64990234375 119.56982421875 C-88.54419921875001 119.01552734375 -88.43849609375002 118.46123046874999 -88.32958984375 117.89013671875 C-87.5119478360383 115.0988760717342 -86.26438678676487 112.9463028766362 -84.77490234375 110.44482421875 C-84.4623046875 109.91888671875 -84.4623046875 109.91888671875 -82.88037109375 107.25732421875 C-79.3573023596025 101.41623456140134 -75.7959852693563 95.59840954457364 -72.22802734375 89.78466796875 C-70.23884588468303 86.54040773193842 -68.27806031550375 83.28090779741879 -66.33740234375 80.00732421875 C-64.53313205703887 76.97780448232389 -62.63746289667702 74.04468801095669 -60.64990234375 71.13232421875 C-57.848074770485084 66.995250692601 -55.50960753620694 62.68318173215343 -53.16162109375 58.27685546875 C-51.281749830169616 54.910574368850234 -49.15197896490025 51.76363550840762 -46.97412109375 48.58544921875 C-45.27785783058209 46.003526375697916 -43.943210309440076 43.37199147774513 -42.64990234375 40.56982421875 C-41.98990234375003 40.56982421875 -41.32990234375001 40.56982421875 -40.64990234375 40.56982421875 C-40.56740234375002 40.04517578125 -40.48490234374998 39.52052734375 -40.39990234375 38.97998046875 C-39.36462165761549 35.653062847161486 -37.520433215460116 32.91449545118054 -35.64990234375 30.00732421875 C-31.774445583701265 23.94345393860381 -31.774445583701265 23.94345393860381 -30.64990234375 20.56982421875 C-29.989902343750032 20.56982421875 -29.329902343750007 20.56982421875 -28.64990234375 20.56982421875 C-28.44365234374999 19.76544921875 -28.237402343749977 18.96107421875 -28.02490234375 18.13232421875 C-26.5091355199811 14.205110175348658 -24.493934052036252 11.147569403057851 -22.08740234375 7.71826171875 C-20.64990234375 5.569824218749957 -20.64990234375 5.569824218749957 -19.64990234375 3.35888671875 C-16.862157459739933 -1.6285631127993199 -5.216933550072326 0.08604231637086102 0 0 Z " fill="#000000" transform="translate(305.64990234375,19.43017578125)"/>
</svg>
